<?xml version="1.0" encoding="utf-8"?>
<!-- Generator: Adobe Illustrator 16.0.0, SVG Export Plug-In . SVG Version: 6.00 Build 0)  -->
<!DOCTYPE svg PUBLIC "-//W3C//DTD SVG 1.1//EN" "http://www.w3.org/Graphics/SVG/1.1/DTD/svg11.dtd">
<svg version="1.1" id="Layer_1" xmlns="http://www.w3.org/2000/svg" xmlns:xlink="http://www.w3.org/1999/xlink" x="0px" y="0px"
	 width="176.194px" height="211.762px" viewBox="0 0 176.194 211.762" enable-background="new 0 0 176.194 211.762"
	 xml:space="preserve">
<g>
	<g>
		<g>
			<path fill="#ff3d00" d="M176.1,88.542c0.547-6.009-1.442-10.715-1.442-10.715c-1.185-2.938-2.427-4.942-3.587-6.527
				c-2.377-3.25-4.295-5.09-7.043-7.013c-5.159-3.618-10.124-4.755-13.63-5.04c-0.464-1.893-1.345-3.638-2.699-4.932
				c-6.626-6.341-15.09-3.096-21.529,2.707c0,0-1.238,1.15-2.934,2.206c-1.116,0.699-2.702,1.623-3.75,1.999
				c-0.806,0.409-1.85,0.603-2.586,0.749c-2.47,0.28-3.813-1.348-3.648-4.491c6.121-3.591,9.151-7.128,9.203-9.933
				c0-1.569-1.231-2.639-2.466-3.087c-1.741-0.73-4.604-0.953-7.521,1.404c-3.06,2.373-4.966,7.722-4.663,11.568
				c-0.854,1.672-2.169,3.252-3.586,4.146c-1.349,0.615-2.244-0.341-1.851-1.688c0.617-1.906,1.571-4.487,2.242-6.395
				c1.18-3.425,1.18-6.173-0.445-7.803c-2.246-2.188-5.782-1.348-6.85-0.169c-0.167,0.169,0.168,0.452,0.281,0.339
				c1.289-0.844,2.807,0.391,2.076,2.412c-0.727,1.852-1.852,4.77-2.863,7.576c-0.235,0.669-0.342,1.302-0.374,1.902
				c-0.816,1.551-2.057,2.988-3.383,3.825c-1.348,0.615-2.302-0.341-1.853-1.688c0.561-1.906,1.571-4.487,2.246-6.395
				c1.121-3.425,1.179-6.23-0.451-7.803c-1.909-1.739-4.042-1.459-5.329-1.009c-1.688,0.504-2.806,1.851-3.76,3.142
				c-0.169-0.785-0.508-1.515-1.125-2.133c-2.244-2.188-5.78-1.348-6.847-0.169c-0.168,0.17,0.17,0.452,0.281,0.339
				c1.292-0.844,2.806,0.391,2.075,2.412c-0.727,1.852-1.852,4.77-2.859,7.576c-0.152,0.431-0.246,0.844-0.311,1.248l-0.029-0.013
				c-0.782,1.798-2.185,3.536-3.702,4.492c-1.346,0.615-2.3-0.34-1.852-1.688c0.563-1.906,1.57-4.486,2.243-6.395
				c1.126-3.425,1.18-6.23-0.447-7.802c-1.907-1.74-4.039-1.46-5.33-1.009c-1.688,0.503-2.809,1.85-3.762,3.142
				c-0.167-0.786-0.505-1.516-1.122-2.133c-2.244-2.188-5.78-1.349-6.848-0.17c-0.167,0.17,0.171,0.452,0.28,0.339
				c1.294-0.844,2.807,0.391,2.079,2.412c-0.731,1.852-1.851,4.77-2.859,7.576c-1.071,3.032,0.163,5.443,1.736,6.399
				c2.075,1.289,4.208,0.784,4.937,0.335c0.731-0.448,1.347-1.348,0.845-1.067c-1.403,0.732-2.359-0.224-1.967-1.628
				c0.617-1.906,1.628-4.486,2.244-6.395c0.617-1.74,0.899-3.312,0.843-4.659c0.673-1.067,1.46-2.021,2.246-2.693
				c1.234-0.844,2.862,0.11,2.131,2.132c-0.673,1.852-1.849,4.77-2.86,7.576c-1.009,3.032,0.226,5.443,1.796,6.399
				c0.951,0.561,2.133,0.84,3.142,0.84c2.415-0.048,4.743-2.091,6.207-4.521c0.149,1.716,1.038,3.036,2.1,3.681
				c2.076,1.29,4.208,0.784,4.938,0.336c0.729-0.449,1.347-1.349,0.841-1.067c-1.402,0.731-2.356-0.224-1.964-1.628
				c0.618-1.906,1.628-4.487,2.247-6.395c0.614-1.74,0.896-3.312,0.841-4.659c0.673-1.067,1.459-2.021,2.247-2.693
				c1.233-0.845,2.859,0.11,2.131,2.132c-0.676,1.852-1.854,4.77-2.864,7.576c-1.008,3.032,0.224,5.443,1.8,6.398
				c0.95,0.562,2.13,0.841,3.141,0.841c2.278-0.046,4.485-1.869,5.955-4.117c0.244,1.522,1.091,2.682,2.068,3.276
				c0.953,0.562,2.13,0.841,3.143,0.841c2.433-0.049,4.78-2.12,6.274-4.573c0.098,0.455,0.225,0.884,0.402,1.264
				c1.068,2.241,3.371,3.364,5.724,3.367c2.028,0,4.261-0.425,5.854-1.228c0,0,3.072-1.235,5.63-3.38
				c3.379-2.834,5.36-3.995,5.36-3.995c4.2-2.967,8.385-2.876,8.385-2.876c7.737,0.453,9.571,5.779,9.571,5.779
				c0.266,0.58,0.466,1.16,0.619,1.733c-2.511-0.113-4.082,0.199-4.082,0.199c-2.767,0.424-5.412,1.64-6.814,3.611
				c-1.318,1.856-1.595,4.354-0.749,6.337c0.363,0.851,0.911,1.621,1.751,2.32c1.91,1.625,5.439,0.954,5.439,0.954
				c0.71-0.243,1.412-0.729,1.412-0.729c1-0.639,1.684-1.5,1.684-1.5c2.196-2.401,3.102-6.619,2.401-10.404
				c4.801,0.43,14.257,2.778,20.922,14.028c3.893,6.567,4.986,13.899-0.477,23.272c0,0-1.334,3.057-5.528,5.971
				c-0.05-0.069-0.097-0.145-0.147-0.21l-0.053-0.078c-1.031-1.612-2.532-3.173-4.159-3.85c-2.357-0.98-4.345,0.687-3.938,2.545
				l-0.001,0.04c0.191,1.438,1.28,2.616,1.28,2.616c1.364,1.728,4.12,2.76,7.264,2.361l0.024,0.054
				c0.037-0.021,0.069-0.045,0.105-0.065c0.026-0.004,0.051-0.003,0.077-0.007c0.816,2.44,1.29,5.803,1.332,10.155
				c0,0-0.335,4.82-1.291,8.171l-0.311,0.916c-5.588,14.913-15.959,18.903-15.959,18.903c-4.344,2.127-7.712,3.19-13.192,3.54
				c-7.133,0.455-15.639-0.623-15.639-0.623c-27.362-3.581-37.226,4.13-40.947,9.488c-2.149,3.097-3.053,5.374-3.568,8.599
				c0,0-1.072,3.301,0.645,9.416c0.698,2.485,2.359,5.647,4.258,8.383l2.908,3.821l0.83-1.499c0,0-7.351-6.448-7.652-16.682
				c0,0-0.602-6.276,3.783-11.822c4.323-5.467,9.545-6.707,9.545-6.707s11.479-5.159,28.516-1.163c0,0,21.206,5.886,34.504-2.004
				c0,0,9.573-3.546,14.404-17.529l0.222-0.643c1.123-3.218,1.261-8.079,1.072-11.885l-0.116-1.847
				c-0.343-2.481-1.06-6.501-2.337-9.651C173.6,101.557,175.629,93.734,176.1,88.542z M114.038,53.446
				c2.076-6.679,7.744-10.214,7.744-5.893c0,2.244-2.694,5.723-8.475,9.147C113.421,55.691,113.644,54.624,114.038,53.446z
				 M149.029,67.219c-1.318,3.492-4.29,4.525-4.29,4.525c-0.935,0.457-3.064,0.628-4.721-0.712c-0.755-0.667-1.235-1.469-1.537-2.21
				c-0.632-1.549-0.318-3.585,0.806-5.162c1.441-2.023,3.702-3.243,8.216-3.724c0,0,0.816-0.086,2.175-0.018
				C150.453,63.838,149.029,67.219,149.029,67.219z M164.445,103.926l0.039,0.085c-1.06,0.77-3.175,1.136-4.712,0.295
				c-0.895-0.378-1.493-1.301-1.493-1.301c-0.555-0.806-0.509-1.724-0.414-2.104c0.219-0.854,0.863-1.037,0.863-1.037
				c2.625-0.855,4.817,2.1,5.897,3.944C164.564,103.848,164.508,103.887,164.445,103.926z M69.997,105.702
				c-1.065,3.03,0.172,5.44,1.737,6.396c2.025,1.291,4.154,0.784,4.942,0.337c0.671-0.391,1.344-1.347,0.841-1.065
				c-1.401,0.729-2.412-0.227-1.964-1.684c1.123-3.368,2.75-9.034,4.377-12.011c0.899-1.625,1.966-2.637,3.59-2.637
				c0.226,0,0.508,0,0.845,0.111c1.683,0.337,2.411,1.683,2.411,3.087c0,0.226,0,0.448-0.055,0.676
				c-0.169-1.461-1.406-2.584-2.862-2.584c-1.628,0-2.919,1.292-2.919,2.918c0,1.57,1.291,2.863,2.919,2.863
				c2.188,0,3.591-1.852,3.591-3.873c0-1.628-0.951-3.368-2.973-3.761c-0.335-0.056-0.674-0.113-0.957-0.113
				c-1.908,0-3.254,1.292-4.152,2.976c-0.277,0.507-0.502,1.066-0.727,1.685c-0.058-1.402-0.451-2.582-1.294-3.48
				c-2.242-2.188-5.778-1.348-6.845-0.168c-0.167,0.168,0.168,0.448,0.281,0.337c1.29-0.843,2.806,0.393,2.019,2.41
				C72.131,99.974,70.95,102.892,69.997,105.702z M96.205,131.995c0.442-0.829,1.22-1.972,1.637-2.802c0,0,3.903-7.996,11.409-9.353
				c0,0,2.079-0.624,5.262,0.074c1.122,0.246,3.277,0.842,4.751,1.433c0,0,3.696,1.464,5.931,2.169
				c-0.021,0.218-0.031,0.434-0.031,0.647c0,3.759,3.48,6.847,7.747,6.847c2.466,0,4.656-0.839,6.284-2.189
				c2.525-2.074,3.366-4.376,4.488-7.296c2.301-5.665,4.377-13.241,6.06-19.306c0.899-3.255,0.841-5.161-0.672-6.678
				c-2.245-2.188-5.779-1.348-6.904-0.168c-0.11,0.168,0.169,0.448,0.338,0.337c1.293-0.843,2.64,0.339,2.021,2.41
				c-0.114,0.451-0.394,1.292-0.729,2.473c-0.395,1.347-1.404,4.434-2.526,7.97c-0.954,1.457-1.853,2.468-2.75,2.861
				c-1.293,0.619-2.188-0.394-1.797-1.739c0.615-1.854,1.572-4.437,2.245-6.342c1.182-3.425,1.182-6.174-0.448-7.802
				c-2.245-2.188-5.784-1.348-6.849-0.168c-0.167,0.168,0.171,0.448,0.279,0.337c1.292-0.843,2.809,0.393,2.079,2.41
				c-0.73,1.854-1.851,4.771-2.863,7.581c-0.376,1.067-0.454,2.052-0.345,2.93c-0.899,1.254-2.016,2.261-3.189,2.903
				c-1.683,0.673-2.525-0.504-2.133-1.85c0.619-1.908,8.642-25.367,9.315-27.329c1.123-3.37,1.123-6.119-0.508-7.747
				c-0.926-0.927-2.071-1.32-3.177-1.378l-0.137-0.027c-1.687-0.091-3.505,0.137-3.505,0.137c-2.271,0.239-3.985,0.513-6.697,1.158
				v0.829c0.012-0.001,0.023-0.003,0.035-0.005c2.734-0.035,4.692,0.053,6.025,1.249c0.651,0.586,1.294,1.283,1.651,2.288
				c0.193,0.407,0.186,0.957,0.164,1.366c-0.015,0.228-0.132,0.603-0.132,0.603s-3.268,9.356-5.115,14.658
				c-2.747-2.021-6.396-2.189-9.479,0.281c-3.312,2.567-5.359,8.656-4.576,12.49c-0.861,1.142-2.124,2.461-3.788,3.277
				c-1.291,0.509-2.246-0.557-1.799-1.907c0.676-2.579,3.09-9.37,3.54-10.437c0.672-1.91,1.568-2.133,2.243-1.461
				c0.11,0.114,0.506,0.06,0.449-0.168c-0.278-1.572-2.522-3.479-5.612-2.581c-1.01,0.28-1.684,0.616-2.301,1.402
				c-0.171-0.394-0.561-0.786-0.899-1.122c-1.623-1.348-5.555-2.415-9.259,0.506c-3.761,2.917-5.892,10.382-4.097,13.918
				c1.122,2.298,3.366,3.367,5.726,3.367c2.524-0.171,3.981-0.845,5.668-1.573c1.234,1.123,2.747,1.402,4.095,1.402
				c2.066-0.039,4.522-1.784,6.236-3.865c0.079,0.234,0.17,0.46,0.276,0.669c1.008,2.245,3.42,3.367,5.777,3.367
				c1.742,0,3.649-0.45,5.444-1.518c1.182,1.124,2.695,1.347,3.986,1.347c2.09,0,4.327-1.319,5.952-3.385
				c0.354,1.186,1.078,2.099,1.906,2.601c1.85,1.123,3.701,0.844,4.656,0.505c1.012-0.336,2.075-0.953,3.083-2.135
				c-1.906,6.008-4.038,12.575-4.652,13.922c-1.182,2.635-4.268,6.509-7.805,4.374c-1.458-1.119-2.357-2.805-2.412-4.6
				c0-0.151,0.016-0.306,0.031-0.461c1.516,0.44,2.401,0.869,3.862,0.547c0,0,2.696-0.487,2.771-2.447l0.014-0.277
				c0-1.626-1.568-2.525-2.975-2.525c-1.401,0-2.975,0.787-3.703,2.413c-0.197,0.396-0.332,0.801-0.431,1.207
				c-5.215-1.755-10.215-4.57-15.856-3.486c-1.969,0.381-3.162,1.076-4.774,2.005c-3.213,1.855-5.577,4.33-7.971,8.235l-0.06,0.081
				c-4.129,7.582-11.032,10.638-11.032,10.638c-14.029,6.902-26.201,0.326-26.201,0.326c-5.03-2.559-7.704-5.201-9.043-7.589
				c0.067,0.07,0.127,0.142,0.208,0.21c0,0,7.687-2.115,7.233-8.063c0,0-0.072-1.633-1.025-2.798
				c-0.788-0.968-2.834-1.606-5.209-0.185c-0.684,0.411-1.32,0.819-2.229,2.302c0,0-1.593,2.525-0.875,6.475
				c0.082,0.45,0.196,0.916,0.349,1.394l-0.279-0.674C19.466,135.531,12.34,114.75,12.34,114.75
				c-1.277-2.838-5.857-19.268,11.809-28.468c4.866-2.534,8.672-3.408,11.577-3.466c-0.048,0.42-0.074,0.827-0.074,1.221
				c0,4.434,3.143,6.791,6.118,6.848c1.739,0,3.479-1.013,4.32-2.807l0.022-0.127c0.227-0.624,0.059-1.492,0.059-1.492
				s-0.135-1.414-1.981-2.488c-1.236-0.72-3.646-1.607-6.845-1.736c-0.272-0.011-0.554-0.015-0.84-0.013
				c0.058-0.302,0.125-0.61,0.215-0.933c0.897-4.045,5.275-8.253,12.4-8.925c1.123-0.115,2.189-0.168,3.198-0.168
				c0.505,0,1.013,0.053,1.627,0.053c6.344,0.787,9.094,5.615,7.859,10.664c-0.898,3.875-3.198,5.503-5.668,5.503
				c-0.282,0-0.45-0.058-0.676-0.058c0.731-2.132,1.292-3.814,1.571-4.545c1.181-3.424,1.181-6.229-0.503-7.746
				c-2.3-2.301-5.835-1.458-6.903-0.224c-0.169,0.169,0.112,0.395,0.227,0.338c1.399-0.843,2.915,0.39,2.184,2.413
				c-0.333,0.673-8.585,24.58-8.975,25.42c-2.077,4.883-5.781,8.758-9.992,6.454c-1.46-1.009-2.356-2.411-2.301-4.151
				c0-0.674,0.112-1.459,0.563-2.355c0.841-1.853,2.524-2.472,3.983-2.472h0.336c-0.672,0.394-1.236,1.179-1.236,2.078
				c0,1.349,1.125,2.414,2.473,2.414c1.233,0,2.355-1.065,2.355-2.414c0-0.844-0.505-1.685-1.232-2.078
				c-0.677-0.391-1.63-0.615-2.695-0.673c-1.627,0-3.594,0.731-4.547,2.807c-0.505,1.01-0.673,1.907-0.673,2.693
				c0,2.135,1.236,3.873,3.03,4.939c1.798,1.235,5.332,2.019,7.912,1.402c2.135-0.505,3.816-1.46,5.275-2.861
				c0.729,1.065,2.022,2.186,4.268,2.694c0.394,0.11,0.729,0.167,1.122,0.223l0.112,0.058c5.836,0.954,10.719-0.675,13.414-5.332
				c2.468-4.152,2.468-9.596,0.336-13.132c-1.516-2.695-3.481-4.045-4.994-4.715c1.906-0.058,3.814-0.618,5.556-2.47
				c2.806-3.479,2.132-7.913-0.897-11.111c-1.911-2.188-4.604-3.142-6.847-3.703c-1.744-0.45-3.763-0.731-6.064-0.731
				c-0.848,0-1.782,0.05-2.723,0.128c-0.139-0.071-0.281-0.15-0.429-0.243l0.056-0.059c-0.109,0-0.171-0.057-0.226-0.057
				c-1.458-1.066-2.973-3.311-2.243-8.079c1.909-11.172,10.214-21.384,6.119-30.42c-3.201-7.128-10.554-8.923-14.369-9.034
				c-0.845-0.111-1.293-0.057-2.021-0.057c-5.431,0-9.65,2.88-11.661,6.021c-4.605-0.415-9.228,1.794-10.808,2.643
				c-0.181-0.263-0.306-0.434-0.306-0.434c-2.19-3.329-2.399-5.431-2.399-5.431c-0.658-3.669,2.103-6.504,2.103-6.504
				c4.542-5.24,9.674-8.617,9.674-8.617C42.748-1.779,67.052,0.801,67.052,0.801C82.625,2.252,89.443,4.331,99.8,8.634
				c0.677,0.281,1.35,0.566,2.019,0.854c1.187,14.817,12.272,16.146,12.272,16.146c4.524,1.319,10.533-0.211,14.441-1.562
				c2.554,1.77,8.608,5.714,14.078,7.352c5.091,1.526,9.536,1.149,12.946-2.335c0,0,2.796-3.176,0.366-6.39
				c0,0-1.172-2.004-5.19-2.938c-0.537-0.123-2.418-0.622-5.22-0.814l-0.937,0.131c-3.133-0.204-7.323,0.488-12.928,2.7
				c-6.414-3.47-16.127-9.031-29.07-13.79c-0.203-1.147-0.355-2.372-0.431-3.699l-0.372,3.398c-1.218-0.44-2.463-0.873-3.737-1.295
				c-50.386-16.71-78.12,3.557-85.909,12.834l-0.522,0.741c-1.261,1.889-2.111,3.572-1.664,6.703
				c0.231,1.604,0.987,3.438,2.294,5.459c0,0,0.27,0.401,0.637,0.968c-5.233,3.305-7.705,6.947-8.816,9.223
				c-0.676,1.371-0.855,2.246-0.855,2.246C0.94,51.894,4.109,55.062,4.109,55.062c2.599,2.999,6.164,1.416,6.164,1.416
				c5.575-2.037,6.62-9.252,6.62-9.252c0.907-5.127-0.406-9.573-1.377-11.963l0.105-0.057c-0.295-0.676-0.695-1.369-1.056-1.943
				c1.37-0.777,2.304-1.169,2.304-1.169c3.088-1.245,5.563-1.683,7.531-1.597c-0.221,0.42-0.41,0.841-0.548,1.257
				c-0.368,1.101-0.552,2.24-0.538,3.139c0.054,3.934,2.609,6.083,5.505,6.083c1.284,0,2.611-0.551,3.399-1.672
				c0.245-0.421,0.408-0.812,0.485-1.256c0.056-0.326,0.097-0.608,0.097-0.608c0.396-3.95-3.264-6.079-3.264-6.079
				c-1.254-0.819-2.605-1.282-3.972-1.493c1.979-2.872,5.851-5.492,10.917-5.492h0.844c3.028,0.168,5.778,1.065,7.855,2.525
				c1.739,1.403,3.087,3.366,3.593,5.947c0.448,2.472-0.111,4.886-1.461,8.531h-6.734c0.842-2.637,1.684-5.223,1.965-6.006
				c1.121-3.367,1.121-5.947-0.452-7.462c-2.188-2.191-6.617-0.225-6.617-0.225c-0.111,0.169,0.11,0.45,0.336,0.392
				c1.231-0.898,2.693,0.337,1.905,2.304c0,0-7.466,21.979-8.491,24.343c-1.023,2.365-1.82,3.87-3.065,5.887l-0.054,0.103
				c-0.006,0.012-0.014,0.024-0.022,0.035c-6.239,10.172-13.245,9.957-13.245,9.957S3.874,71.292,0.78,61.781L0,61.917
				c1.774,6.396,6.371,9.009,10.373,10.041c0,0-0.198-0.035,0.379,0.109c9.723,2.452,15.001-2.041,15.001-2.041
				c4.658-3.27,8.57-11.298,10.17-15.29c1.057-2.641,2.861-8.027,4.378-12.683c0,0,4.771,0.057,6.846,0.057
				c-1.009,2.583-2.354,5.725-3.759,9.653c-4.734,12.752-2.256,18.858,4.251,20.167c-6.521,1.079-10.6,5.206-11.595,9.187
				c-0.102,0.389-0.174,0.758-0.234,1.119c-3.432,0.136-7.778,1.2-13.004,4.185c-17.139,9.795-12.843,26.517-11.512,29.295
				c0,0,7.413,22.585,38.087,17.779c1.344,2.925,4.235,6.157,10.042,9.073c0,0,12.773,6.405,26.155-0.349
				C85.578,142.22,92.536,138.903,96.205,131.995z M98.167,105.643c-0.782,2.188-0.336,4.098,0.62,5.335
				c-6.452,3.195-6.736-2.978-5.277-7.635c2.301-7.127,5.782-8.754,7.408-7.408c0.394,0.281,0.619,0.673,0.785,1.065
				C100.862,98.461,99.965,100.93,98.167,105.643z M119.945,105.643c-0.787,2.245-0.282,4.154,0.671,5.388
				c-0.671,0.394-1.29,0.675-1.961,0.899c-3.595,0.672-4.998-2.753-3.145-8.587c2.244-7.127,5.723-8.754,7.407-7.408
				c0.113,0.055,0.282,0.168,0.282,0.281C121.628,100.761,120.337,104.633,119.945,105.643z M126.396,121.696
				c0.449-1.067,1.292-1.685,2.19-1.909l0.331-0.021c1.151,0.019,1.473,0.412,1.473,0.412c1.394,1.095,0.566,2.339,0.566,2.339
				c-0.945,1.167-2.756,0.924-2.756,0.924c-0.747-0.17-1.487-0.38-2.223-0.613C126.082,122.454,126.219,122.075,126.396,121.696z
				 M59.614,104.411c-2.186,5.834-5.495,7.855-9.033,7.463c-2.079-0.562-3.257-1.569-3.874-2.581
				c1.348-1.292,2.413-3.088,3.255-5.165c1.29-2.972,3.592-9.987,5.277-15.098c0.897,0.169,1.74,0.449,2.468,0.732
				C61.188,92.23,62.364,97.225,59.614,104.411z M147.696,20.436c0.567,0.207,1.062,0.458,1.522,0.727
				c1.203,1.632,0.033,3.489,0.033,3.489c-1.968,3.833-11.59,0.065-11.59,0.065c-1.262-0.457-2.904-1.278-4.883-2.333
				C142.406,18.218,147.696,20.436,147.696,20.436z M114.96,15.833c6.053,3.268,10.578,6.197,11.908,7.075
				c-3.211,0.598-7.394,1.067-10.159,0.211c0,0-10.485-0.795-13.694-13.105C107.339,11.917,111.436,13.93,114.96,15.833z
				 M15.515,47.256c-1.698,6.901-6.45,7.58-6.45,7.58c-6.338,0.905-5.431-7.241-5.431-7.241c0.518-6.744,6.035-11.303,9.781-13.646
				c0.377,0.604,0.779,1.271,1.093,1.853l0.024-0.013C16.224,40.127,16.2,44.468,15.515,47.256z M29.723,32.872
				c1.7,2.013,0.805,4.029,0.805,4.029s-0.593,2.112-3.11,1.952c0,0-2.234,0.01-3.114-2.093c0,0-0.329-0.745-0.366-1.951
				c-0.027-0.842,0.113-1.679,0.536-2.857c0.165-0.459,0.386-0.927,0.655-1.393C27.278,30.811,28.757,31.729,29.723,32.872z
				 M36.406,82.827c0.14,0.003,0.291-0.001,0.427,0.006c2.007,0.104,3.512,0.622,4.592,1.164c1.916,0.966,2.34,2.463,2.34,2.463
				s0.752,1.983-0.141,3.057c-0.353,0.425-0.778,0.539-0.778,0.539c-0.344,0.101-0.704,0.156-1.076,0.156
				c-2.582,0-5.445-2.076-5.445-6.174C36.324,83.649,36.352,83.246,36.406,82.827z M50.414,124.295
				c1.111-1.39,2.461-1.649,3.202-1.641c2.008,0.023,1.889,2.446,1.889,2.446c-0.398,4.808-5.789,5.903-5.789,5.903
				s-0.013,0.129,0.001,0.323C48.271,127.288,50.414,124.295,50.414,124.295z M100.963,39.696c0,1.626,1.293,2.919,2.864,2.919
				c1.627,0,2.917-1.293,2.917-2.919c0-1.57-1.29-2.861-2.917-2.861C102.256,36.834,100.963,38.125,100.963,39.696z"/>
		</g>
	</g>
	<path fill="#ff3d00" d="M160.782,160.262c1.93,19.937-18.381,21.934-18.381,21.934c-7.315,2.058-22.604-0.494-22.604-0.494
		c-35.659-8.548-33.138,8.383-33.138,8.383c1.676,2.074,1.253,0.603,1.253,0.603s-1.48-6.736,7.085-9.531c0,0,7.7-2.87,23.354,1.334
		c0,0,17.883,5.18,28.501,2.348c0,0,17.565-2.32,15.282-20.393"/>
	<path fill="#ff3d00" d="M119.247,211.762c3.643-6.567-5.946-10.357-5.946-10.357c-4.24-2.337-11.086-2.887-11.086-2.887
		c-17.945-0.849-15.527-8.939-15.527-8.939c1.22-1.242,1.038,0.363,1.038,0.363s-0.245,2.769,2.418,4.578
		c0,0,2.388,2.193,11.52,3.109c0,0,9.101,0.205,14.63,3.41c0,0,7.739,3.617,4.178,9.49"/>
	<g>
		<g>
			<path fill="#ff3d00" d="M93.135,167.554l1.782-0.094c0.025,0.567,0.123,0.95,0.293,1.149c0.272,0.323,0.778,0.484,1.515,0.484
				c0.613,0,1.057-0.109,1.329-0.329c0.273-0.22,0.41-0.484,0.41-0.795c0-0.27-0.111-0.497-0.335-0.684
				c-0.157-0.137-0.589-0.358-1.295-0.664c-0.706-0.307-1.222-0.562-1.547-0.768s-0.581-0.471-0.767-0.798
				c-0.187-0.327-0.28-0.71-0.28-1.149c0-0.766,0.277-1.401,0.833-1.906c0.555-0.506,1.357-0.758,2.409-0.758
				c1.068,0,1.896,0.25,2.481,0.751s0.908,1.168,0.966,2l-1.795,0.081c-0.045-0.435-0.202-0.769-0.472-1
				c-0.27-0.232-0.667-0.348-1.192-0.348c-0.518,0-0.888,0.091-1.109,0.273c-0.222,0.182-0.332,0.411-0.332,0.689
				c0,0.261,0.102,0.476,0.305,0.646c0.202,0.174,0.651,0.412,1.348,0.714c1.048,0.452,1.714,0.818,2,1.1
				c0.427,0.414,0.64,0.946,0.64,1.597c0,0.804-0.317,1.489-0.953,2.059s-1.521,0.854-2.655,0.854c-0.783,0-1.461-0.132-2.034-0.395
				c-0.574-0.263-0.979-0.628-1.215-1.097C93.228,168.701,93.118,168.163,93.135,167.554z"/>
			<path fill="#ff3d00" d="M106.569,170.504h-1.876l1.59-7.584h-2.671l0.316-1.521h7.175l-0.317,1.521h-2.633L106.569,170.504z"/>
			<path fill="#ff3d00" d="M113.556,161.399h1.869l-1.03,4.943l-0.255,1.218c-0.017,0.104-0.025,0.201-0.025,0.292
				c0,0.36,0.131,0.657,0.394,0.892c0.263,0.233,0.646,0.351,1.147,0.351c0.451,0,0.824-0.085,1.118-0.255s0.521-0.422,0.683-0.758
				c0.162-0.335,0.325-0.904,0.491-1.708l1.043-4.975h1.87l-1.037,4.981c-0.22,1.047-0.473,1.849-0.758,2.403
				c-0.286,0.555-0.719,1.006-1.299,1.354c-0.579,0.348-1.312,0.521-2.198,0.521c-1.061,0-1.872-0.26-2.435-0.779
				c-0.563-0.52-0.846-1.188-0.846-2.004c0-0.169,0.015-0.354,0.044-0.553c0.017-0.132,0.089-0.509,0.218-1.13L113.556,161.399z"/>
			<path fill="#ff3d00" d="M122.138,170.504l1.907-9.105h2.453c0.684,0,1.12,0.01,1.311,0.03c0.377,0.038,0.714,0.114,1.011,0.23
				c0.296,0.115,0.564,0.278,0.807,0.487c0.243,0.209,0.452,0.461,0.628,0.755s0.311,0.632,0.405,1.016
				c0.096,0.383,0.144,0.802,0.144,1.258c0,0.981-0.187,1.852-0.562,2.611s-0.847,1.363-1.414,1.811
				c-0.435,0.348-0.996,0.604-1.684,0.771c-0.389,0.091-0.987,0.137-1.795,0.137H122.138z M124.317,169.039h0.951
				c0.688,0,1.186-0.043,1.494-0.128c0.309-0.084,0.591-0.243,0.848-0.475c0.368-0.336,0.679-0.783,0.932-1.342
				c0.252-0.559,0.379-1.218,0.379-1.976c0-0.646-0.104-1.131-0.313-1.456c-0.209-0.325-0.468-0.541-0.774-0.649
				c-0.215-0.074-0.598-0.111-1.148-0.111h-1.087L124.317,169.039z"/>
			<path fill="#ff3d00" d="M132.484,170.504l1.907-9.105h1.869l-1.9,9.105H132.484z"/>
			<path fill="#ff3d00" d="M137.962,166.933c0-0.539,0.081-1.105,0.242-1.702c0.211-0.799,0.533-1.493,0.966-2.081
				s0.979-1.053,1.637-1.395c0.659-0.342,1.408-0.512,2.249-0.512c1.126,0,2.036,0.35,2.729,1.049c0.693,0.7,1.04,1.628,1.04,2.783
				c0,0.961-0.226,1.891-0.677,2.789s-1.063,1.59-1.839,2.074c-0.773,0.484-1.649,0.727-2.627,0.727
				c-0.849,0-1.561-0.192-2.137-0.577c-0.575-0.386-0.983-0.862-1.224-1.432S137.962,167.512,137.962,166.933z M139.813,166.896
				c0,0.625,0.19,1.148,0.571,1.571c0.381,0.422,0.882,0.633,1.503,0.633c0.505,0,0.99-0.166,1.457-0.5
				c0.465-0.333,0.851-0.838,1.154-1.515c0.305-0.678,0.457-1.337,0.457-1.979c0-0.717-0.192-1.278-0.578-1.687
				c-0.385-0.408-0.875-0.612-1.472-0.612c-0.915,0-1.659,0.427-2.233,1.28C140.1,164.941,139.813,165.876,139.813,166.896z"/>
		</g>
	</g>
</g>
</svg>
