<?xml version="1.0" encoding="utf-8"?>
<!-- Generator: Adobe Illustrator 16.0.0, SVG Export Plug-In . SVG Version: 6.00 Build 0)  -->
<!DOCTYPE svg PUBLIC "-//W3C//DTD SVG 1.1//EN" "http://www.w3.org/Graphics/SVG/1.1/DTD/svg11.dtd">
<svg version="1.1" id="Layer_2" xmlns="http://www.w3.org/2000/svg" xmlns:xlink="http://www.w3.org/1999/xlink" x="0px" y="0px"
	 width="25.5px" height="20.5px" viewBox="0 0 25.5 20.5" enable-background="new 0 0 25.5 20.5" xml:space="preserve">
<rect y="1.375" fill="#FFFFFF" width="25.5" height="19.125"/>
<g id="Layer_1">
	<g>
		<g>
			<path fill="#F2F0EB" d="M21.635,18.617c0.348-0.002,0.721-0.678,1.074-0.717c0.33-0.035,0.832,0.426,1.025,0.408
				c0.348-0.031,0.604-0.863,1.021-0.922c0.26-0.035,0.744,0.348,1.023,0.309c0.475-0.066,0.434-0.775,0.717-1.074
				c0.604-0.154,0.764,0.229,1.229,0.102c0.629-0.168,0.225-1.436,1.023-1.229L28.637-0.121H-1
				c0.434-0.013,0.102,17.578,0.57,17.509c0.266-0.039,0.801,0.34,1.022,0.309c0.466-0.066,0.441-0.787,0.769-1.023
				c0.386-0.168,0.934,0.123,1.332-0.051c0.283-0.771,0.438-1.383,1.688-1.23c0.357-0.369,0.068-1.094,0.512-1.33
				c0.33-0.176,0.73,0.054,0.974-0.154c0.255-0.217-0.001-0.902,0.257-1.279c0.275-0.396,0.779-0.094,1.074-0.459
				c0.182-0.483-0.168-1,0.051-1.383c0.255-0.224,1.186-0.24,1.434,0c0.312,0.469-0.127,0.971,0.051,1.33
				c0.201,0.406,0.787,0.17,1.126,0.512c0.104,0.324,0,0.854,0.104,1.18c0.318,0.387,0.908,0.037,1.229,0.359
				c0.303,0.299,0.014,0.846,0.309,1.227c0.482,0.256,0.985-0.133,1.381,0.205c0.271,0.232,0.156,0.912,0.463,1.076
				c0.295,0.156,0.75-0.182,1.176-0.053c0.375,0.109,0.473,0.93,0.771,1.023c0.303,0.094,0.629-0.311,1.074-0.258
				c0.379,0.047,0.686,0.887,1.021,0.924c0.289,0.031,0.777-0.457,1.127-0.408c0.354,0.051,0.643,0.695,0.975,0.715
				c0.312,0.02,0.66-0.541,1.072-0.562C20.926,18.033,21.316,18.619,21.635,18.617z M28.678,8.484
				c-1.275,0.002-1.857-0.312-2.811-0.717c-0.473-0.205-1.283-0.386-1.285-0.874c-0.006-0.467,0.914-0.86,1.434-1.071
				c0.928-0.38,1.688-0.508,2.662-0.517V8.484z M18.234,2.9c0.572-0.267,1.465-0.153,2.309-0.153c0.834,0,1.729-0.113,2.299,0.153
				c0.287,1.56-1.273,2.752-3.016,2.406C18.895,5.122,17.906,4.065,18.234,2.9z M2.108,8.382C1.996,8.348,1.61,8.09,1.444,8.022
				C0.721,7.737-0.554,7.48-0.605,6.947C-0.65,6.439,0.168,6.149,0.569,5.974c0.787-0.335,2.326-0.969,3.537-0.668
				C4.877,5.5,5.293,6.604,4.973,7.61C4.838,8.059,4.462,8.314,3.952,8.429C3.663,8.499,2.589,8.518,2.108,8.382z M11.787,8.429
				c-1.184-0.337-1.438-2.408-0.361-2.969c1.079-0.559,2.604,0.087,3.536,0.46c0.379,0.158,1.516,0.401,1.531,0.922
				c0.018,0.582-1.283,0.902-1.582,1.025c-0.709,0.295-1.277,0.458-2.051,0.562C12.453,8.486,12.109,8.523,11.787,8.429z
				 M23.664,8.686c0.4,0.113,0.895,0.301,1.279,0.461c0.992,0.416,2.322,1.285,2.508,2.152c0.203,0.951-0.709,1.881-1.33,1.994
				c-0.387,0.073-0.855-0.039-1.127-0.201c-0.619-0.375-1.393-1.678-1.793-2.662c-0.215-0.539-0.625-1.14-0.309-1.744
				C23.127,8.546,23.406,8.616,23.664,8.686z M13.68,11.039c0.273-0.563,1.111-1.199,1.74-1.535
				c0.883-0.473,2.045-1.007,2.762-0.765c0.07,0.176,0.076,0.322,0.053,0.56c-0.055,0.496-0.873,2.304-1.328,2.919
				c-0.279,0.375-0.928,0.994-1.385,1.074C14.271,13.508,13.145,12.155,13.68,11.039z M18.951,13.037
				c0.064-0.406,0.346-1.228,0.564-1.738c0.195-0.475,0.549-1.33,0.865-1.387c0.594-0.095,0.885,0.786,1.135,1.436
				c0.295,0.797,0.92,2.486,0.404,3.586c-0.186,0.406-0.701,0.596-1.123,0.666C19.311,15.824,18.699,14.748,18.951,13.037z"/>
		</g>
	</g>
</g>
</svg>
