<?xml version="1.0" encoding="utf-8"?>
<!-- Generator: Adobe Illustrator 16.0.0, SVG Export Plug-In . SVG Version: 6.00 Build 0)  -->
<!DOCTYPE svg PUBLIC "-//W3C//DTD SVG 1.1//EN" "http://www.w3.org/Graphics/SVG/1.1/DTD/svg11.dtd">
<svg version="1.1" id="Layer_1" xmlns="http://www.w3.org/2000/svg" xmlns:xlink="http://www.w3.org/1999/xlink" x="0px" y="0px"
	 width="40px" height="40px" viewBox="0 0 40 40" enable-background="new 0 0 40 40" xml:space="preserve">
<path fill="#333333" d="M31.735,39.9H8.183c-4.543,0-8.241-3.682-8.241-8.205V8.226c0-4.525,3.698-8.206,8.241-8.206h23.553
	c4.544,0,8.24,3.681,8.24,8.206v23.47C39.976,36.219,36.279,39.9,31.735,39.9z M8.183,0.928c-4.041,0-7.33,3.273-7.33,7.298v23.47
	c0,4.022,3.289,7.297,7.33,7.297h23.553c4.04,0,7.327-3.274,7.327-7.297V8.226c0-4.025-3.287-7.298-7.327-7.298H8.183z"/>
<g>
	<g>
		<path fill="#333333" d="M25.279,10.252c0,0.335-0.013,0.605-0.041,0.812c-0.026,0.2-0.065,0.359-0.122,0.467
			c-0.048,0.11-0.109,0.186-0.176,0.226c-0.063,0.041-0.136,0.062-0.212,0.062c-0.094,0-0.196-0.021-0.31-0.062
			c-0.11-0.041-0.249-0.082-0.412-0.13c-0.163-0.046-0.358-0.088-0.582-0.127c-0.22-0.044-0.485-0.064-0.786-0.064
			c-0.359,0-0.663,0.052-0.918,0.149c-0.255,0.1-0.472,0.254-0.643,0.468c-0.171,0.216-0.295,0.49-0.375,0.833
			c-0.078,0.342-0.117,0.761-0.117,1.26v1.425h3.219c0.12,0,0.227,0.028,0.324,0.086c0.098,0.059,0.184,0.153,0.248,0.288
			c0.066,0.132,0.116,0.318,0.148,0.549c0.031,0.23,0.049,0.516,0.049,0.85c0,0.641-0.064,1.093-0.197,1.368
			c-0.133,0.27-0.324,0.41-0.572,0.41h-3.219v12.581c0,0.119-0.042,0.223-0.119,0.309c-0.077,0.091-0.211,0.159-0.394,0.219
			c-0.185,0.055-0.442,0.098-0.771,0.129c-0.331,0.028-0.729,0.041-1.202,0.041c-0.479,0-0.872-0.013-1.195-0.041
			c-0.323-0.031-0.582-0.074-0.77-0.129c-0.191-0.06-0.323-0.128-0.396-0.219c-0.072-0.086-0.106-0.189-0.106-0.309V19.122h-2.214
			c-0.248,0-0.438-0.14-0.562-0.41c-0.125-0.275-0.186-0.728-0.186-1.368c0-0.334,0.015-0.62,0.046-0.85
			c0.037-0.23,0.082-0.417,0.14-0.549c0.063-0.134,0.142-0.229,0.237-0.288c0.097-0.058,0.214-0.086,0.345-0.086h2.194v-1.305
			c0-1.056,0.116-1.98,0.355-2.774c0.237-0.793,0.608-1.455,1.113-1.984c0.505-0.528,1.149-0.926,1.933-1.194
			c0.783-0.264,1.707-0.399,2.773-0.399c0.515,0,1,0.041,1.458,0.117c0.461,0.071,0.824,0.155,1.085,0.245
			c0.264,0.085,0.439,0.167,0.537,0.24c0.089,0.078,0.163,0.184,0.225,0.335c0.059,0.144,0.101,0.33,0.127,0.554
			C25.267,9.634,25.279,9.916,25.279,10.252z"/>
	</g>
</g>
</svg>
