<?xml version="1.0" encoding="utf-8"?>
<!-- Generator: Adobe Illustrator 16.0.0, SVG Export Plug-In . SVG Version: 6.00 Build 0)  -->
<!DOCTYPE svg PUBLIC "-//W3C//DTD SVG 1.1//EN" "http://www.w3.org/Graphics/SVG/1.1/DTD/svg11.dtd">
<svg version="1.1" id="Layer_1" xmlns="http://www.w3.org/2000/svg" xmlns:xlink="http://www.w3.org/1999/xlink" x="0px" y="0px"
	 width="40px" height="40px" viewBox="0 0 40 40" enable-background="new 0 0 40 40" xml:space="preserve">
<path fill="#333333" d="M31.735,39.9H8.183c-4.543,0-8.241-3.682-8.241-8.205V8.226c0-4.525,3.698-8.206,8.241-8.206h23.553
	c4.544,0,8.24,3.681,8.24,8.206v23.47C39.976,36.219,36.279,39.9,31.735,39.9z M8.183,0.928c-4.041,0-7.33,3.273-7.33,7.298v23.47
	c0,4.022,3.289,7.297,7.33,7.297h23.553c4.04,0,7.327-3.274,7.327-7.297V8.226c0-4.025-3.287-7.298-7.327-7.298H8.183z"/>
<g>
	<polyline fill="#333333" points="31.018,10.864 19.884,21.292 8.75,10.864 	"/>
	<polyline fill="#333333" points="31.666,12.711 23.604,20.177 31.666,28.343 	"/>
	<polyline fill="#333333" points="8.123,12.828 16.187,20.292 8.123,28.458 	"/>
	<g>
		<g>
			<path fill="#333333" d="M22.032,21.418l-2.013,2.013c-0.202,0.207-0.534,0.207-0.739,0l-1.779-1.778l-8.41,8.409l21.594,0.003
				L22.032,21.418z"/>
		</g>
	</g>
</g>
</svg>
