<?xml version="1.0" encoding="utf-8"?>
<!-- Generator: Adobe Illustrator 16.0.0, SVG Export Plug-In . SVG Version: 6.00 Build 0)  -->
<!DOCTYPE svg PUBLIC "-//W3C//DTD SVG 1.1//EN" "http://www.w3.org/Graphics/SVG/1.1/DTD/svg11.dtd">
<svg version="1.1" id="Layer_1" xmlns="http://www.w3.org/2000/svg" xmlns:xlink="http://www.w3.org/1999/xlink" x="0px" y="0px"
	 width="40px" height="40px" viewBox="0 0 40 40" enable-background="new 0 0 40 40" xml:space="preserve">
<path fill="#333333" d="M31.767,40H8.234C3.694,40,0,36.31,0,31.771V8.231C0,3.693,3.694,0,8.234,0h23.532
	C36.307,0,40,3.693,40,8.231v23.54C40,36.31,36.307,40,31.767,40z M8.234,0.911c-4.038,0-7.324,3.283-7.324,7.32v23.54
	c0,4.035,3.286,7.319,7.324,7.319h23.532c4.036,0,7.321-3.284,7.321-7.319V8.231c0-4.037-3.285-7.32-7.321-7.32H8.234z"/>
<g>
	<path fill="#333333" d="M23.875,9.632c-2.395,0.863-3.906,3.089-3.733,5.525
	l0.057,0.941l-0.958-0.114c-3.483-0.443-6.527-1.939-9.114-4.454l-1.264-1.247l-0.326,0.921c-0.689,2.053-0.25,4.221,1.187,5.68
	c0.767,0.806,0.594,0.921-0.727,0.441c-0.46-0.152-0.862-0.268-0.899-0.21c-0.135,0.134,0.325,1.88,0.689,2.571
	c0.497,0.959,1.512,1.898,2.623,2.457l0.938,0.44l-1.111,0.019c-1.071,0-1.11,0.02-0.997,0.423c0.384,1.247,1.898,2.57,3.583,3.148
	l1.187,0.403l-1.034,0.614c-1.532,0.881-3.332,1.379-5.133,1.417c-0.86,0.021-1.569,0.097-1.569,0.154
	c0,0.193,2.336,1.268,3.695,1.689c4.078,1.245,8.922,0.71,12.562-1.42c2.585-1.516,5.169-4.53,6.376-7.447
	c0.651-1.553,1.302-4.392,1.302-5.755c0-0.883,0.057-0.999,1.129-2.054c0.633-0.614,1.227-1.285,1.339-1.477
	c0.193-0.365,0.175-0.365-0.802-0.038c-1.629,0.575-1.858,0.499-1.054-0.364c0.595-0.615,1.302-1.727,1.302-2.053
	c0-0.058-0.288,0.038-0.612,0.21c-0.346,0.192-1.11,0.479-1.686,0.652l-1.034,0.326l-0.937-0.633
	c-0.518-0.346-1.247-0.729-1.628-0.844C26.248,9.287,24.754,9.325,23.875,9.632z"/>
</g>
</svg>
