<?xml version="1.0" encoding="utf-8"?>
<!-- Generator: Adobe Illustrator 16.0.0, SVG Export Plug-In . SVG Version: 6.00 Build 0)  -->
<!DOCTYPE svg PUBLIC "-//W3C//DTD SVG 1.1//EN" "http://www.w3.org/Graphics/SVG/1.1/DTD/svg11.dtd">
<svg version="1.1" id="Layer_1" xmlns="http://www.w3.org/2000/svg" xmlns:xlink="http://www.w3.org/1999/xlink" x="0px" y="0px"
	 width="40px" height="40px" viewBox="0 0 40 40" enable-background="new 0 0 40 40" xml:space="preserve">
<path fill="#333333" d="M31.701,39.9H8.242c-4.525,0-8.206-3.68-8.206-8.201V8.239c0-4.523,3.68-8.203,8.206-8.203h23.459
	c4.524,0,8.205,3.68,8.205,8.203v23.46C39.906,36.221,36.226,39.9,31.701,39.9z M8.242,0.944c-4.023,0-7.297,3.271-7.297,7.295
	v23.46c0,4.021,3.274,7.294,7.297,7.294h23.459c4.024,0,7.297-3.273,7.297-7.294V8.239c0-4.023-3.272-7.295-7.297-7.295H8.242z"/>
<g>
	<path fill="#333333" d="M30.433,32.855c-0.106,0-0.209-0.012-0.317-0.029c-0.987-0.172-1.649-1.114-1.477-2.104
		c0.153-0.862,0.231-1.762,0.231-2.672c0-8.605-6.998-15.604-15.603-15.604c-1.056,0-2.114,0.107-3.148,0.317
		c-0.976,0.197-1.942-0.435-2.141-1.418c-0.2-0.984,0.436-1.943,1.419-2.143c1.27-0.257,2.571-0.39,3.87-0.39
		c10.605,0,19.234,8.628,19.234,19.237c0,1.12-0.095,2.231-0.28,3.301C32.063,32.232,31.297,32.855,30.433,32.855z"/>
	<path fill="#333333" d="M23.394,32.542c-0.105,0-0.212-0.008-0.318-0.026c-0.989-0.175-1.647-1.119-1.472-2.105
		c0.086-0.487,0.131-0.997,0.131-1.521c0-4.9-3.986-8.889-8.886-8.889c-0.607,0-1.209,0.062-1.79,0.181
		c-0.994,0.208-1.946-0.431-2.147-1.412c-0.202-0.982,0.43-1.945,1.413-2.147c0.823-0.169,1.673-0.255,2.525-0.255
		c6.904,0,12.518,5.617,12.518,12.522c0,0.737-0.062,1.463-0.186,2.155C25.023,31.924,24.258,32.542,23.394,32.542z"/>
	<path fill="#333333" d="M17.248,28.146c0,0.211-0.016,0.423-0.055,0.629c-0.298,1.718-1.795,3.024-3.602,3.024
		c-2.016,0-3.656-1.633-3.656-3.653c0-1.77,1.256-3.241,2.917-3.582c0.241-0.05,0.484-0.073,0.739-0.073
		C15.609,24.491,17.248,26.129,17.248,28.146z"/>
</g>
</svg>
