<?xml version="1.0" encoding="utf-8"?>
<!-- Generator: Adobe Illustrator 16.0.0, SVG Export Plug-In . SVG Version: 6.00 Build 0)  -->
<!DOCTYPE svg PUBLIC "-//W3C//DTD SVG 1.1//EN" "http://www.w3.org/Graphics/SVG/1.1/DTD/svg11.dtd">
<svg version="1.1" id="Layer_1" xmlns="http://www.w3.org/2000/svg" xmlns:xlink="http://www.w3.org/1999/xlink" x="0px" y="0px"
	 width="183.5px" height="166.5px" viewBox="0 0 183.5 166.5" enable-background="new 0 0 183.5 166.5" xml:space="preserve">
<g>
	<circle fill="#F8B1B3" cx="123.794" cy="158.559" r="2.681"/>
	<path fill="#FFFFFF" d="M101.936,89.719c-7.312,0-13.263-5.947-13.263-13.26s5.949-13.263,13.263-13.263
		c7.312,0,13.26,5.951,13.26,13.263S109.246,89.719,101.936,89.719z M101.936,64.683c-6.492,0-11.774,5.283-11.774,11.776
		c0,6.492,5.282,11.773,11.774,11.773c6.491,0,11.771-5.281,11.771-11.773C113.707,69.967,108.427,64.683,101.936,64.683z"/>
	<path fill="#FFFFFF" d="M27.047,33.258c0-3.748-2.576-5.295-5.247-5.248c-3.329,0-5.575,2.248-5.435,5.202
		c0.141,2.997,1.92,4.123,5.435,5.106c3.279,0.89,6.981,1.78,7.261,7.076c0.237,4.076-2.998,7.449-7.261,7.449
		c-4.122,0-7.922-2.952-7.639-7.496h1.312c0,3.984,2.718,6.278,6.327,6.278c3.698,0,6.042-2.812,5.947-6.044
		c-0.09-3.422-1.965-5.06-5.993-5.951c-3.75-1.076-6.562-2.156-6.703-6.419c0-4.124,3.048-6.42,6.749-6.42
		c3.609,0.047,6.559,2.201,6.559,6.466L27.047,33.258L27.047,33.258z"/>
	<path fill="#FFFFFF" d="M34.217,27.4h2.578v13.356c0,6.699,3.279,10.963,10.074,10.87c5.904-0.094,10.072-3.42,10.072-9.935V27.4
		h2.577v1.266h-1.266v22.305h1.266v1.266h-2.577c0-1.688,0-3.328,0.049-5.389c-1.688,4.311-6.001,6.09-10.402,5.997
		c-7.405-0.188-11.107-4.638-11.107-12.087v-12.09h-1.264V27.4z"/>
	<path fill="#FFFFFF" d="M64.298,50.97h1.265V28.666h-1.265V27.4h2.577v4.733c2.344-4.919,6.606-5.201,8.762-5.342v1.265h-0.375
		c-5.294,0-8.387,3.842-8.387,10.59v13.589h-2.577V50.97z"/>
	<path fill="#FFFFFF" d="M113.119,45.816c-2.246,4.45-6.373,7.027-11.619,7.027c-8.15,0-13.072-6.325-13.072-13.025
		c0-6.842,5.06-13.026,13.072-13.026c5.999,0,10.309,3.702,11.619,7.169V27.4h2.58v1.266h-1.268v22.305h1.268v1.266h-2.58V45.816z
		 M89.739,39.865c0.046,5.577,3.892,11.761,11.902,11.761c5.295,0,9.323-3.232,10.918-7.732c0.515-1.357,0.75-2.856,0.705-4.356
		c0-1.5-0.285-3-0.847-4.312c-1.687-4.31-5.858-7.216-10.918-7.216c-6.464,0-11.761,4.829-11.761,11.809L89.739,39.865
		L89.739,39.865z"/>
	<path fill="#FFFFFF" d="M145.402,44.411c-1.729,5.06-6.51,8.433-12.088,8.433c-8.854,0-13.308-6.701-13.308-12.979
		c0-7.356,5.527-13.073,13.074-13.073c5.062,0,10.401,2.812,12.369,8.669h-1.453c-1.922-5.483-7.121-7.498-10.87-7.451
		c-3.516,0.047-5.811,1.03-8.388,3.329c-2.015,1.826-3.419,5.106-3.419,8.48c0,7.029,5.437,11.808,11.761,11.808
		c5.621-0.048,9.653-3.514,10.868-7.215L145.402,44.411L145.402,44.411z"/>
	<path fill="#FFFFFF" d="M149.902,39.958c0.096,8.105,6.889,11.716,11.758,11.668c4.594,0,8.626-2.343,10.594-6.56h1.452
		c-1.124,2.624-2.906,4.591-5.013,5.904c-2.111,1.266-4.547,1.873-7.077,1.873c-9.371,0-13.073-7.449-13.073-12.979
		c0-7.45,5.717-13.073,13.117-13.073c3.328,0,6.517,1.171,8.906,3.329c2.718,2.435,4.31,6.183,4.074,9.837h-24.738V39.958z
		 M173.331,38.74c-0.28-5.996-5.86-10.965-11.671-10.73c-6.137,0-11.336,4.451-11.71,10.73H173.331z"/>
	<path fill="#FFFFFF" d="M150.852,76.587c0.092,8.107,6.889,11.714,11.76,11.667c4.591,0,8.623-2.342,10.591-6.559h1.454
		c-1.127,2.624-2.906,4.592-5.018,5.903c-2.111,1.266-4.545,1.873-7.072,1.873c-9.375,0-13.074-7.448-13.074-12.977
		c0-7.45,5.718-13.072,13.119-13.072c3.328,0,6.515,1.17,8.902,3.325c2.721,2.436,4.312,6.186,4.076,9.839L150.852,76.587
		L150.852,76.587z M174.279,75.367c-0.283-5.995-5.859-10.963-11.668-10.729c-6.141,0-11.34,4.452-11.715,10.729H174.279z"/>
	
		<rect x="74.518" y="105.534" transform="matrix(-0.8394 -0.5435 0.5435 -0.8394 85.6711 237.8678)" fill="#FFFFFF" width="6.914" height="1.488"/>
	<path fill="#FFFFFF" d="M114.27,126.256c-1.146,0-2.225-0.059-3.205-0.131c-5.985-0.445-9.676-2.863-9.834-2.967l-17.817-12.676
		l0.858-1.209l17.803,12.66c0.016,0.008,3.523,2.293,9.1,2.709c3.096,0.23,7.17,0.299,11.219-1.205l0.519,1.396
		C119.898,125.951,116.904,126.256,114.27,126.256z"/>
	<path fill="none" stroke="#000000" stroke-width="1.5" d="M98.102,66.7"/>
	<path fill="#FFFFFF" d="M108.285,76.174c-2.268,0-4.483-0.533-6.377-1.578c-4.654-2.574-5.79-7.527-5.835-7.736l1.452-0.32
		c0.01,0.044,1.053,4.513,5.103,6.754c1.07,0.589,4.938,2.385,9.903,0.689l0.48,1.408C111.475,75.915,109.868,76.174,108.285,76.174
		z"/>
	<path fill="#FFFFFF" d="M116.561,74.426l-0.34-1.448c0.082-0.02,8.321-2.018,8.922-7.477c0.004-0.045,0.289-2.189-0.795-3.49
		c-0.541-0.647-1.324-0.98-2.402-1.024c0.005,0.001-0.764,0.029-1.25,0.748c-0.711,1.045-0.549,3.132,0.457,5.872l0.609,1.714
		l-1.402,0.498l-0.604-1.708c-1.218-3.315-1.306-5.757-0.267-7.25c0.941-1.346,2.427-1.361,2.488-1.361
		c1.532,0.06,2.705,0.589,3.519,1.565c1.507,1.817,1.137,4.511,1.121,4.625C125.906,72.17,116.939,74.338,116.561,74.426z"/>
	<path fill="#FFFFFF" d="M158.21,59.557c-9.64,0.902-12.427,10.283-12.454,10.378l-10.062,32.415
		c-0.176,0.596-0.771,1.627-1.887,1.627c-1.518,0-2.121-2.223-2.188-2.477l-8.575-28.075l1.33-0.46l8.584,28.111
		c0.173,0.672,0.575,1.412,0.849,1.412c0.359,0,0.555-0.593,0.558-0.601l10.061-32.405c0.024-0.086,3.097-10.42,13.646-11.407"/>
	<path fill="#FFFFFF" d="M67.506,124.033c-3.351,0-5.399-1.029-5.749-1.22c-0.774-0.327-8.928-4.059-9.123-15.295l0.104-0.985
		c0-0.072,0.481-13.619,15.08-13.619c0.117,0.007,6.931,0.513,7.417,7.031c0.123,1.631,0.102,3.864-1.202,6.685
		c-0.071,0.138-1.31,2.38-3.455,2.729c-2.261,0.368-3.316-0.608-3.806-1.496c-0.072-0.164-1.014-2.432,0.213-4.066
		c0.905-1.215,2.682-1.684,5.272-1.383l0.177,0.045l1.053,0.393l-0.521,1.393l-0.971-0.362c-1.944-0.203-3.264,0.067-3.815,0.803
		c-0.717,0.949-0.079,2.519-0.072,2.535c0.105,0.183,0.532,0.955,2.23,0.672c1.422-0.231,2.356-1.912,2.367-1.928
		c1.134-2.466,1.156-4.453,1.047-5.904c-0.391-5.217-5.754-5.643-5.983-5.657c-13.114,0.002-13.537,11.731-13.548,12.229
		l-0.102,0.955c0.188,10.61,7.903,13.735,8.231,13.862l0.104,0.052c0.039,0.021,4.275,2.352,11.049-0.06
		c7.32-2.606,7.811-11.897,7.812-11.99V8.806c-0.002-0.078,0.081-8.143,9.533-8.753c0.203-0.027,6.005-0.712,9.727,3.744
		l0.862,1.311c2.767,5.773,0.238,9.989,0.131,10.166c-3.289,4.934-8.6,3.34-8.652,3.323c-5.634-2.082-4.163-7.296-4.148-7.349
		c0.007-0.037,0.427-1.716,1.736-2.86c1.057-0.922,2.624-1.311,4.2-1.028c1.284,0.225,2.243,0.8,2.848,1.707
		c1.007,1.503,0.615,3.349,0.599,3.426c-0.776,2.823-3.383,2.766-4.318,2.509l0.389-1.437c0.327,0.087,1.979,0.417,2.486-1.43l0,0
		c0,0,0.25-1.292-0.395-2.25c-0.375-0.552-1-0.909-1.865-1.063c-1.119-0.198-2.256,0.064-2.964,0.685
		c-0.944,0.828-1.275,2.117-1.279,2.129c-0.054,0.19-1.083,3.974,3.192,5.556c0.139,0.039,4.272,1.247,6.92-2.72
		c0.074-0.125,2.183-3.708-0.17-8.636l-0.761-1.155c-3.143-3.748-8.34-3.153-8.394-3.149c-8.122,0.526-8.19,6.996-8.19,7.271v100.68
		c-0.018,0.455-0.527,10.414-8.799,13.361C71.499,123.734,69.314,124.033,67.506,124.033z"/>
	<path fill="#F8B1B3" d="M111.441,111.025c-1.912,0-5.075-0.797-9.771-4.283c-8.137-6.043-16.016-11.844-16.016-11.844l0.882-1.199
		c0,0,7.88,5.805,16.021,11.85c7.312,5.43,10.332,3.715,10.358,3.692l0.819,1.24C113.577,110.592,112.85,111.025,111.441,111.025z"
		/>
	<path fill="#F8B1B3" d="M46.446,122.475c-0.316,0-0.647-0.051-0.979-0.176c-1.314-0.494-2.199-1.957-2.639-4.354l1.462-0.269
		c0.334,1.817,0.923,2.937,1.7,3.229c0.731,0.271,1.547-0.224,1.786-0.386c0.475-0.653,0.642-1.266,0.503-1.815
		c-0.288-1.137-1.763-1.83-1.781-1.838c-3.452-2.066-8.83,0.231-8.884,0.254c-0.51,0.274-13.909,7.233-26.555,1.748
		c-13.706-5.947-9.442-19.017-9.398-19.146c0.03-0.094,3.45-10.605,15.895-11.227c1.91-9.56,8.986-13.468,9.298-13.635
		c13.91-9.859,28.956,0.042,29.105,0.143l22.965,15.354l-0.826,1.236L55.13,76.239c-0.144-0.094-14.355-9.422-27.495-0.115
		c-0.142,0.082-6.682,3.724-8.555,12.346c0.178,0.004,0.356,0.008,0.539,0.014c3.906,0.143,7.02,1.441,9.257,3.864
		c3.691,3.999,3.716,9.661,3.695,10.537c0.202,0.927-0.074,1.534-0.347,1.884c-0.706,0.904-2.002,0.933-2.146,0.933
		c-4.22-0.306-7.446-1.814-9.64-4.482c-3.408-4.146-3.232-9.738-3.116-11.217C6.15,90.732,3.104,100.086,3.075,100.186
		c-0.168,0.5-3.854,11.928,8.573,17.32c12.001,5.207,25.188-1.65,25.323-1.721c0.299-0.133,6.188-2.648,10.214-0.232l0,0
		c0.015,0,2.069,0.948,2.535,2.791c0.262,1.033-0.017,2.1-0.827,3.166l-0.128,0.131C48.709,121.682,47.694,122.475,46.446,122.475z
		 M18.816,89.955c-0.073,0.877-0.421,6.439,2.779,10.325c1.924,2.338,4.799,3.662,8.535,3.934c0.176-0.004,0.717-0.096,0.923-0.361
		c0.114-0.148,0.133-0.389,0.052-0.715l-0.026-0.104l0.004-0.107c0.002-0.059,0.197-5.791-3.308-9.578
		c-1.955-2.114-4.719-3.25-8.213-3.379C19.314,89.959,19.064,89.955,18.816,89.955z"/>
	<path fill="#F8B1B3" d="M42.332,112.354c-0.053-0.242-1.256-6.021,1.135-15.08c0.036-0.125,3.133-11.318-3.081-15.676
		c-0.238-0.178-5.498-3.995-9.269-0.097l0,0c0.011,0-0.587,0.88-0.311,1.689c0.272,0.805,1.327,1.27,2.17,1.52l-0.427,1.426
		c-1.719-0.51-2.78-1.346-3.158-2.48c-0.526-1.579,0.544-3.047,0.589-3.109c3.81-3.953,9.035-1.822,11.277-0.155
		c7.066,4.957,3.784,16.778,3.641,17.278c-2.286,8.666-1.125,14.314-1.112,14.371L42.332,112.354z"/>
	<path fill="#F8B1B3" d="M121.027,163.285c-0.078,0-0.153-0.002-0.227-0.006c-1.359,0.063-2.572-0.398-3.543-1.357
		c-2.499-2.463-2.402-7.432-2.396-7.645v-52.273c0.012-0.176,0.228-3.117,2.209-4.705c1.041-0.836,2.35-1.139,3.887-0.9l0.173,0.047
		c0.091,0.037,2.228,0.945,3.226,3.476c0.883,2.235,0.604,4.971-0.836,8.131c-0.104,0.196-1.99,3.498-5.426,4.047l-0.234-1.467
		c2.731-0.438,4.32-3.224,4.336-3.25c1.236-2.724,1.508-5.068,0.777-6.916c-0.676-1.713-2.016-2.453-2.339-2.611
		c-1.075-0.145-1.936,0.05-2.628,0.603c-1.471,1.174-1.656,3.574-1.658,3.6l0.002,52.242c-0.002,0.064-0.084,4.561,1.955,6.568
		c0.674,0.664,1.494,0.963,2.512,0.928c0.195,0,3.222,0.113,4.341-3.109l1.407,0.49
		C125.422,162.449,122.564,163.285,121.027,163.285z"/>
	<g>
		<path fill="#F8B1B3" d="M57.062,161.121h1.263v-32.144h-1.263v-1.266h3.935v1.266h-1.264v32.144h13.399v-1.267h1.265v2.531H57.062
			V161.121z"/>
		<path fill="#F8B1B3" d="M80.349,138.771h-5.484v-1.219h5.483v-9.84h1.309v9.84h6.373v1.219h-6.373v22.35h1.268v1.267h-2.576
			V138.771z"/>
		<path fill="#F8B1B3" d="M115.021,155.967c-2.25,4.449-6.371,7.027-11.621,7.027c-8.152,0-13.073-6.324-13.073-13.025
			c0-6.842,5.062-13.027,13.073-13.027c6,0,10.31,3.703,11.621,7.17v-15.133h0.729v-1.266h0.583 M91.64,150.016
			c0.048,5.576,3.887,11.762,11.901,11.762c3.279,0,6.229-1.312,8.34-3.469c2.109-2.156,3.376-5.152,3.281-8.434
			c0-3.328-1.264-6.232-3.373-8.342c-2.111-2.107-5.061-3.373-8.391-3.373c-6.465,0-11.759,4.828-11.759,11.809L91.64,150.016
			L91.64,150.016z"/>
	</g>
	<circle fill="#F8B1B3" cx="32.953" cy="83.801" r="2.395"/>
	<g>
		<g>
			<path fill="#FFFFFF" d="M138.045,163.832c-1.111,0-2.031-0.578-2.084-0.613l-0.145-0.117c-0.91-0.98-1.295-2.014-1.137-3.068
				c0.279-1.879,2.231-3.026,2.314-3.075c3.691-2.761,9.802-0.853,10.062-0.771c0.189,0.076,14.021,5.566,25.416-0.811
				c11.823-6.615,7.008-17.612,6.799-18.077c-0.166-0.388-3.641-8.187-13.399-8.708c-0.123,4.295-1.603,14.912-12.864,16.883
				c-0.197,0.021-1.488,0.125-2.283-0.703c-0.305-0.322-0.643-0.898-0.535-1.842c-0.106-0.866-0.651-6.504,2.619-10.852
				c1.981-2.635,4.949-4.242,8.822-4.773c0.961-0.133,1.879-0.204,2.756-0.222c-0.002-0.024-0.004-0.046-0.004-0.061
				c-2.498-10.399-9.723-13.782-9.797-13.813c-7.809-4.18-16.799-0.5-21.868,4.676c-8.919,9.104-15.134,7.861-15.393,7.805
				l0.315-1.453c0.053,0.012,5.741,1.053,14.014-7.395c5.447-5.557,15.15-9.48,23.59-4.969c0.275,0.121,7.908,3.656,10.602,14.914
				c0.002,0.021,0.012,0.131,0.021,0.319c10.791,0.562,14.727,9.492,14.769,9.593c0.049,0.108,5.604,12.684-7.433,19.977
				c-12.031,6.73-26.063,1.15-26.654,0.908l0,0c-0.006,0.002-5.59-1.734-8.733,0.611c-0.469,0.278-1.521,1.094-1.662,2.062
				c-0.082,0.561,0.148,1.148,0.685,1.75c0.252,0.137,1.117,0.555,1.821,0.199c0.738-0.371,1.213-1.54,1.361-3.379l1.483,0.121
				c-0.198,2.428-0.937,3.973-2.192,4.594C138.887,163.754,138.452,163.832,138.045,163.832z M164.419,128.566
				c-0.823,0.019-1.683,0.086-2.585,0.209c-3.467,0.479-6.104,1.892-7.837,4.195c-3.108,4.135-2.329,9.795-2.321,9.852l0.016,0.107
				l-0.016,0.107c-0.048,0.33-0.008,0.567,0.122,0.705c0.229,0.242,0.787,0.283,1.011,0.258
				C163.166,142.186,164.359,132.42,164.419,128.566z"/>
			<path fill="#FFFFFF" d="M141.432,153.334l-1.479-0.167c0.006-0.058,0.596-5.792-2.556-14.199
				c-0.188-0.47-4.638-11.901,1.91-17.558c2.043-1.869,7.031-4.517,11.149-1.031c0.118,0.123,1.331,1.477,0.965,3.1
				c-0.261,1.166-1.231,2.105-2.89,2.787l-0.568-1.375c0.812-0.334,1.823-0.906,2.01-1.738c0.19-0.86-0.541-1.697-0.549-1.705
				c-4.074-3.438-8.928,0.892-9.132,1.076c-5.771,4.982-1.554,15.801-1.507,15.908C142.076,147.217,141.457,153.088,141.432,153.334
				z"/>
		</g>
	</g>
	<circle fill="#FFFFFF" cx="148.206" cy="123.944" r="2.396"/>
	<rect x="77.287" y="27.39" fill="#FFFFFF" width="11.896" height="1.259"/>
</g>
</svg>
