<?xml version="1.0" encoding="utf-8"?>
<!-- Generator: Adobe Illustrator 16.0.0, SVG Export Plug-In . SVG Version: 6.00 Build 0)  -->
<!DOCTYPE svg PUBLIC "-//W3C//DTD SVG 1.1//EN" "http://www.w3.org/Graphics/SVG/1.1/DTD/svg11.dtd">
<svg version="1.1" id="Layer_1" xmlns="http://www.w3.org/2000/svg" xmlns:xlink="http://www.w3.org/1999/xlink" x="0px" y="0px"
	 width="73.25px" height="22.75px" viewBox="0 0 73.25 22.75" enable-background="new 0 0 73.25 22.75" xml:space="preserve">
<g>
	<polyline fill="#8C887E" points="73.423,22.962 73.228,22.962 0,22.962 4.649,11.921 0,0 73.423,0 	"/>
	<g>
		<g>
			<path fill="#FFFFFF" d="M25.438,15.529h0.324V7.337l-4.197,8.516h-0.204l-4.21-8.516v8.191h0.324v0.324h-1.008v-0.324h0.324
				V7.301h-0.324V6.978h0.899l4.102,8.3l4.09-8.3h0.888v0.323h-0.324v8.228h0.324v0.324h-1.008V15.529z"/>
			<path fill="#FFFFFF" d="M28.757,11.404c0-2.651,2.062-4.582,4.605-4.582c2.542,0,4.605,1.931,4.605,4.594
				c0,2.662-2.063,4.594-4.605,4.594c-2.543,0-4.605-1.932-4.605-4.594V11.404z M29.116,11.427c0,2.447,1.895,4.258,4.246,4.258
				c2.351,0,4.245-1.811,4.245-4.27s-1.895-4.27-4.245-4.27c-2.352,0-4.246,1.811-4.246,4.27V11.427z"/>
			<path fill="#FFFFFF" d="M42.52,12.183h0.252c0.647,0,1.702,0,2.267-0.563c0.563-0.588,0.755-1.199,0.755-1.896
				c0-0.768-0.371-1.619-1.055-2.062c-0.54-0.348-1.188-0.36-2.231-0.36H40.84v8.552h-0.684v-0.324h0.324V7.301h-0.324V6.978h2.351
				c1.38,0,1.932,0.12,2.363,0.372c0.72,0.359,1.283,1.331,1.283,2.362c0.023,0.552-0.145,1.247-0.563,1.799
				c-0.648,0.852-1.392,0.96-2.399,0.996l2.147,3.021h0.563v0.324h-0.779L42.52,12.183z"/>
			<path fill="#FFFFFF" d="M52.992,11.547h-4.186v3.981h4.186v-0.323h0.324v0.647h-5.193v-0.324h0.324V7.301h-0.324V6.978h5.193
				v0.647h-0.324V7.301h-4.186v3.922h4.186V10.9h0.324v0.972h-0.324V11.547z"/>
		</g>
	</g>
	<polyline fill="none" stroke="#FFFFFF" points="59.869,4.533 66.819,11.482 59.869,18.433 	"/>
</g>
<g>
</g>
<g>
</g>
<g>
</g>
<g>
</g>
<g>
</g>
<g>
</g>
</svg>
