<?xml version="1.0" encoding="utf-8"?>
<!-- Generator: Adobe Illustrator 16.0.0, SVG Export Plug-In . SVG Version: 6.00 Build 0)  -->
<!DOCTYPE svg PUBLIC "-//W3C//DTD SVG 1.1//EN" "http://www.w3.org/Graphics/SVG/1.1/DTD/svg11.dtd">
<svg version="1.1" id="Layer_1" xmlns="http://www.w3.org/2000/svg" xmlns:xlink="http://www.w3.org/1999/xlink" x="0px" y="0px"
	 width="19.25px" height="25.5px" viewBox="0 0 19.25 25.5" enable-background="new 0 0 19.25 25.5" xml:space="preserve">
<rect fill="#FFFFFF" width="19.25" height="25.5"/>
<g>
	<g>
		<path fill="#F2F0EB" d="M18.738,7.116c-0.002-0.347-0.678-0.72-0.717-1.075c-0.035-0.33,0.426-0.832,0.408-1.025
			c-0.031-0.348-0.863-0.604-0.922-1.023c-0.035-0.258,0.348-0.744,0.309-1.023c-0.066-0.474-0.775-0.434-1.075-0.717
			c-0.153-0.604,0.229-0.764,0.103-1.229C16.675,0.395,15.408,0.801,15.614,0H0v29.75c-0.013-0.434,17.577-0.102,17.509-0.57
			c-0.038-0.266,0.341-0.801,0.31-1.022c-0.067-0.466-0.789-0.441-1.024-0.769c-0.169-0.386,0.123-0.934-0.052-1.332
			c-0.769-0.283-1.38-0.438-1.229-1.688c-0.37-0.357-1.094-0.068-1.331-0.512c-0.175-0.33,0.054-0.73-0.154-0.974
			c-0.217-0.255-0.904,0.001-1.28-0.257c-0.396-0.275-0.094-0.779-0.459-1.074c-0.484-0.182-1.001,0.168-1.383-0.051
			c-0.223-0.255-0.241-1.186,0-1.434c0.468-0.312,0.97,0.127,1.331-0.051c0.406-0.201,0.169-0.787,0.511-1.127
			c0.324-0.103,0.854,0,1.179-0.103c0.387-0.318,0.038-0.909,0.359-1.229c0.299-0.302,0.847-0.013,1.228-0.308
			c0.256-0.483-0.134-0.985,0.204-1.381c0.232-0.272,0.913-0.157,1.076-0.463c0.157-0.296-0.18-0.75-0.052-1.177
			c0.111-0.375,0.929-0.471,1.023-0.77c0.094-0.304-0.311-0.629-0.257-1.075c0.046-0.378,0.886-0.686,0.923-1.021
			c0.031-0.29-0.457-0.777-0.408-1.127c0.051-0.352,0.695-0.641,0.715-0.973c0.02-0.314-0.541-0.66-0.562-1.074
			C18.154,7.824,18.74,7.436,18.738,7.116z M8.606,0.072c0.002,1.278-0.312,1.86-0.717,2.812C7.684,3.355,7.503,4.166,7.015,4.168
			c-0.467,0.006-0.86-0.913-1.071-1.432c-0.38-0.928-0.508-1.689-0.517-2.664H8.606z M3.021,10.518
			c-0.267-0.574-0.153-1.465-0.153-2.31c0-0.834-0.113-1.728,0.153-2.299c1.56-0.286,2.752,1.275,2.406,3.016
			C5.242,9.857,4.186,10.845,3.021,10.518z M8.503,26.643c-0.034,0.111-0.292,0.498-0.36,0.664
			c-0.284,0.723-0.542,1.998-1.075,2.049C6.56,29.4,6.27,28.582,6.095,28.182c-0.335-0.787-0.969-2.326-0.668-3.537
			c0.194-0.771,1.297-1.187,2.304-0.867c0.448,0.135,0.704,0.511,0.819,1.021C8.619,25.087,8.638,26.161,8.503,26.643z M8.55,16.964
			c-0.337,1.183-2.408,1.438-2.969,0.361c-0.559-1.078,0.087-2.603,0.46-3.535c0.158-0.38,0.401-1.515,0.922-1.532
			c0.582-0.017,0.902,1.284,1.026,1.583c0.294,0.708,0.458,1.277,0.561,2.05C8.608,16.297,8.644,16.643,8.55,16.964z M8.806,5.087
			c0.113-0.401,0.301-0.896,0.461-1.28c0.416-0.992,1.286-2.323,2.152-2.508c0.951-0.203,1.881,0.71,1.995,1.331
			c0.074,0.386-0.039,0.855-0.201,1.126c-0.375,0.619-1.679,1.393-2.662,1.794c-0.54,0.215-1.141,0.625-1.745,0.307
			C8.667,5.623,8.738,5.345,8.806,5.087z M11.159,15.07c-0.563-0.273-1.199-1.111-1.534-1.739c-0.472-0.883-1.007-2.045-0.764-2.762
			c0.175-0.07,0.322-0.077,0.559-0.051c0.495,0.053,2.304,0.873,2.92,1.327c0.375,0.279,0.994,0.928,1.073,1.384
			C13.629,14.479,12.277,15.605,11.159,15.07z M13.158,9.799c-0.407-0.064-1.227-0.346-1.738-0.565
			c-0.474-0.196-1.331-0.548-1.387-0.866c-0.094-0.593,0.787-0.883,1.436-1.133c0.796-0.296,2.485-0.921,3.586-0.405
			c0.405,0.186,0.595,0.7,0.666,1.122C15.946,9.441,14.869,10.053,13.158,9.799z"/>
	</g>
</g>
</svg>
